<svg width="24" height="15" viewBox="0 0 24 15" fill="none" xmlns="http://www.w3.org/2000/svg">
<path d="M0.687322 8.96432H14.7413C14.8315 8.96438 14.9209 8.94925 15.0044 8.9198C15.0878 8.89035 15.1636 8.84715 15.2274 8.79268C15.2913 8.7382 15.3419 8.67352 15.3764 8.60234C15.4109 8.53115 15.4286 8.45486 15.4286 8.37782V6.62519C15.4286 6.54815 15.4109 6.47186 15.3764 6.40068C15.3419 6.32949 15.2913 6.26481 15.2274 6.21034C15.1636 6.15587 15.0878 6.11267 15.0044 6.08322C14.9209 6.05376 14.8315 6.03863 14.7413 6.03869H0.687322C0.597041 6.03863 0.507633 6.05376 0.424212 6.08322C0.34079 6.11267 0.264993 6.15587 0.201155 6.21034C0.137317 6.26481 0.0866921 6.32949 0.0521759 6.40068C0.0176598 6.47186 -7.02397e-05 6.54815 2.09119e-07 6.62519V8.37782C-7.02397e-05 8.45486 0.0176598 8.53115 0.0521759 8.60234C0.0866921 8.67352 0.137317 8.7382 0.201155 8.79268C0.264993 8.84715 0.34079 8.89035 0.424212 8.9198C0.507633 8.94925 0.597041 8.96438 0.687322 8.96432ZM23.1429 0.187438H0.857143C0.629815 0.187438 0.411797 0.264496 0.251052 0.401661C0.0903061 0.538827 2.09119e-07 0.724863 2.09119e-07 0.918844V2.38166C2.09119e-07 2.57564 0.0903061 2.76168 0.251052 2.89884C0.411797 3.03601 0.629815 3.11306 0.857143 3.11306H23.1429C23.3702 3.11306 23.5882 3.03601 23.7489 2.89884C23.9097 2.76168 24 2.57564 24 2.38166V0.918844C24 0.724863 23.9097 0.538827 23.7489 0.401661C23.5882 0.264496 23.3702 0.187438 23.1429 0.187438ZM23.1429 11.8899H0.857143C0.629815 11.8899 0.411797 11.967 0.251052 12.1042C0.0903061 12.2413 2.09119e-07 12.4274 2.09119e-07 12.6214V14.0842C2.09119e-07 14.2782 0.0903061 14.4642 0.251052 14.6014C0.411797 14.7385 0.629815 14.8156 0.857143 14.8156H23.1429C23.3702 14.8156 23.5882 14.7385 23.7489 14.6014C23.9097 14.4642 24 14.2782 24 14.0842V12.6214C24 12.4274 23.9097 12.2413 23.7489 12.1042C23.5882 11.967 23.3702 11.8899 23.1429 11.8899Z" fill="white"/>
</svg>
